<svg width="19" height="11" viewBox="0 0 19 11" fill="none" xmlns="http://www.w3.org/2000/svg">
<path d="M2.74148 11H0.772727L4.35724 0.818182H6.63423L10.2237 11H8.25497L5.53551 2.90625H5.45597L2.74148 11ZM2.80611 7.00781H8.17543V8.48935H2.80611V7.00781ZM11.5648 11V0.818182H15.383C16.1652 0.818182 16.8214 0.964015 17.3517 1.25568C17.8854 1.54735 18.2881 1.94839 18.5598 2.45881C18.8349 2.96591 18.9725 3.54261 18.9725 4.18892C18.9725 4.84186 18.8349 5.42187 18.5598 5.92898C18.2847 6.43608 17.8787 6.83546 17.3418 7.12713C16.8049 7.41548 16.1436 7.55966 15.3581 7.55966H12.8276V6.04332H15.1096C15.5669 6.04332 15.9415 5.96378 16.2331 5.80469C16.5248 5.6456 16.7402 5.42685 16.8794 5.14844C17.022 4.87003 17.0932 4.55019 17.0932 4.18892C17.0932 3.82765 17.022 3.50947 16.8794 3.23438C16.7402 2.95928 16.5231 2.7455 16.2282 2.59304C15.9365 2.43726 15.5603 2.35938 15.0996 2.35938H13.4093V11H11.5648Z" fill="#D5D7D9"/>
</svg>
