<svg width="24" height="12" viewBox="0 0 24 12" fill="none" xmlns="http://www.w3.org/2000/svg">
<path d="M2.63699 11H0.668235L4.25275 0.818182H6.52974L10.1192 11H8.15048L5.43102 2.90625H5.35147L2.63699 11ZM2.70162 7.00781H8.07093V8.48935H2.70162V7.00781ZM14.7751 7.57955H16.4456L17.4349 8.86222L18.1409 9.69744L19.8362 11.875H18.0464L16.893 10.4134L16.4008 9.71733L14.7751 7.57955ZM20.0798 5.90909C20.0798 7.00616 19.8743 7.94579 19.4633 8.72798C19.0557 9.50687 18.4988 10.1035 17.7929 10.5178C17.0902 10.9321 16.2931 11.1392 15.4015 11.1392C14.51 11.1392 13.7112 10.9321 13.0052 10.5178C12.3026 10.1001 11.7458 9.50189 11.3348 8.72301C10.9271 7.94081 10.7233 7.00284 10.7233 5.90909C10.7233 4.81203 10.9271 3.87405 11.3348 3.09517C11.7458 2.31297 12.3026 1.71473 13.0052 1.30043C13.7112 0.886126 14.51 0.678977 15.4015 0.678977C16.2931 0.678977 17.0902 0.886126 17.7929 1.30043C18.4988 1.71473 19.0557 2.31297 19.4633 3.09517C19.8743 3.87405 20.0798 4.81203 20.0798 5.90909ZM18.2254 5.90909C18.2254 5.13684 18.1044 4.48556 17.8625 3.95526C17.6238 3.42164 17.2924 3.01894 16.8682 2.74716C16.4439 2.47206 15.955 2.33452 15.4015 2.33452C14.848 2.33452 14.3592 2.47206 13.9349 2.74716C13.5107 3.01894 13.1776 3.42164 12.9356 3.95526C12.697 4.48556 12.5777 5.13684 12.5777 5.90909C12.5777 6.68134 12.697 7.33428 12.9356 7.8679C13.1776 8.3982 13.5107 8.8009 13.9349 9.07599C14.3592 9.34777 14.848 9.48366 15.4015 9.48366C15.955 9.48366 16.4439 9.34777 16.8682 9.07599C17.2924 8.8009 17.6238 8.3982 17.8625 7.8679C18.1044 7.33428 18.2254 6.68134 18.2254 5.90909ZM23.6817 0.818182V11H21.8373V0.818182H23.6817Z" fill="#4E73CD"/>
</svg>
