<svg width="20" height="21" viewBox="0 0 20 21" fill="none" xmlns="http://www.w3.org/2000/svg">
<path fill-rule="evenodd" clip-rule="evenodd" d="M0.8 6.4C0.296388 6.77771 0 7.37049 0 8V18.4375C0 19.5421 0.895431 20.4375 2 20.4375H6.5C7.05228 20.4375 7.5 19.9898 7.5 19.4375V12.6875C7.5 12.1352 7.94772 11.6875 8.5 11.6875H11.5C12.0523 11.6875 12.5 12.1352 12.5 12.6875V19.4375C12.5 19.9898 12.9477 20.4375 13.5 20.4375H18C19.1046 20.4375 20 19.5421 20 18.4375V8C20 7.37049 19.7036 6.77771 19.2 6.4L11.2 0.4C10.4889 -0.133333 9.51111 -0.133333 8.8 0.4L0.8 6.4Z" fill="#6C6F74"/>
</svg>
