<svg width="35" height="35" viewBox="0 0 35 35" fill="none" xmlns="http://www.w3.org/2000/svg">
<path d="M32.3091 16.637H30.6421C29.7015 16.637 28.9411 17.2477 28.9411 17.9995C28.9411 18.7496 29.7015 19.3586 30.6421 19.3586H32.3091C33.2481 19.3586 34.0101 18.7513 34.0101 17.9995C34.0101 17.2494 33.2464 16.637 32.3091 16.637ZM17.0001 8.644C15.7705 8.64018 14.5522 8.87956 13.4154 9.34837C12.2786 9.81717 11.2458 10.5061 10.3763 11.3756C9.50676 12.2451 8.81778 13.278 8.34898 14.4148C7.88017 15.5516 7.64079 16.7698 7.64461 17.9995C7.64461 23.1893 11.8104 27.355 17.0001 27.355C22.1882 27.355 26.3556 23.1893 26.3556 17.9995C26.3556 12.8098 22.1865 8.644 17.0001 8.644ZM5.09311 17.9995C5.09311 17.2494 4.32936 16.637 3.39211 16.637H1.69111C0.750459 16.637 -0.0098877 17.2477 -0.0098877 17.9995C-0.0098877 18.7496 0.750459 19.3586 1.69111 19.3586H3.39211C4.32936 19.3586 5.09311 18.7496 5.09311 17.9995ZM17.0001 6.0925C17.7503 6.0925 18.3592 5.33215 18.3592 4.3915V2.6905C18.3592 1.74985 17.7503 0.989502 17.0001 0.989502C16.25 0.989502 15.6376 1.74985 15.6376 2.6905V4.3915C15.6376 5.33215 16.2483 6.0925 17.0001 6.0925ZM17.0001 29.9065C16.2483 29.9065 15.6376 30.6668 15.6376 31.6075V33.3085C15.6376 34.2492 16.2483 35.0095 17.0001 35.0095C17.7503 35.0095 18.3592 34.2492 18.3592 33.3085V31.6075C18.3592 30.6668 17.7503 29.9065 17.0001 29.9065ZM29.528 7.39547C30.1931 6.73038 30.3002 5.76081 29.7695 5.23009C29.2388 4.69938 28.2675 4.80825 27.6058 5.47334L26.4151 6.66234C25.7501 7.32743 25.6429 8.297 26.1736 8.82771C26.7043 9.35842 27.6756 9.24956 28.339 8.58447L29.528 7.39547ZM5.66125 27.4111L4.47055 28.6035C3.80546 29.2686 3.69829 30.2348 4.229 30.7655C4.75972 31.2962 5.73099 31.1908 6.39268 30.5257L7.58338 29.3367C8.24847 28.6716 8.35563 27.702 7.82492 27.1696C7.29421 26.6372 6.32294 26.7494 5.66125 27.4111ZM6.39438 5.47164C5.73099 4.80655 4.75972 4.69768 4.229 5.22839C3.69829 5.75911 3.80716 6.73038 4.46884 7.39547L5.65954 8.58447C6.32464 9.24956 7.29251 9.35842 7.82322 8.82771C8.35393 8.297 8.24677 7.32573 7.58338 6.66234L6.39438 5.47164ZM26.4134 29.3384L27.6041 30.5274C28.2692 31.1925 29.2371 31.2979 29.7678 30.7706C30.2985 30.2399 30.1914 29.2686 29.5263 28.6052L28.3373 27.4162C27.6722 26.7511 26.7026 26.6423 26.1702 27.173C25.6378 27.7037 25.7484 28.6733 26.4134 29.3384Z" fill="#FFEA72"/>
</svg>
