<svg width="31" height="18" viewBox="0 0 31 18" fill="none" xmlns="http://www.w3.org/2000/svg">
<path fill-rule="evenodd" clip-rule="evenodd" d="M3.23775 17.6492C3.46697 17.7395 3.7545 17.679 3.87996 17.5141L6.36619 14.2466C6.49165 14.0817 6.40755 13.8748 6.17833 13.7846C5.94912 13.6943 5.66159 13.7548 5.53612 13.9197L3.0499 17.1872C2.92443 17.3521 3.00854 17.559 3.23775 17.6492ZM10.7987 17.679C11.0508 17.7286 11.311 17.6218 11.38 17.4405L12.6231 14.173C12.6921 13.9917 12.5437 13.8045 12.2916 13.7548C12.0396 13.7052 11.7793 13.812 11.7104 13.9933L10.4673 17.2608C10.3983 17.4421 10.5467 17.6293 10.7987 17.679ZM18.2574 13.7548C18.0054 13.8045 17.857 13.9917 17.9259 14.173L19.169 17.4405C19.238 17.6218 19.4983 17.7286 19.7503 17.679C20.0023 17.6293 20.1507 17.4421 20.0818 17.2608L18.8386 13.9933C18.7697 13.812 18.5094 13.7052 18.2574 13.7548ZM24.3707 13.7846C24.1415 13.8748 24.0574 14.0817 24.1828 14.2466L26.6691 17.5141C26.7945 17.679 27.082 17.7395 27.3113 17.6492C27.5405 17.559 27.6246 17.3521 27.4991 17.1872L25.0129 13.9197C24.8874 13.7548 24.5999 13.6943 24.3707 13.7846Z" fill="#4E73CD"/>
<path fill-rule="evenodd" clip-rule="evenodd" d="M3.02275 7.37755L0.0310059 6.18576L1.4703 14.6035L6.86729 8.90907L4.28957 7.88221C6.67054 4.56731 10.7845 2.32781 15.5156 2.32781C20.2467 2.32781 24.3606 4.56731 26.7416 7.88221L24.1639 8.90907L29.5609 14.6035L31.0002 6.18576L28.0084 7.37755C25.4061 3.41956 20.7573 0.839844 15.5156 0.839844C10.2739 0.839844 5.62506 3.41956 3.02275 7.37755Z" fill="#4E73CD"/>
</svg>
