<svg width="26" height="31" viewBox="0 0 26 31" fill="none" xmlns="http://www.w3.org/2000/svg">
<path d="M13 4.42857C10.4288 4.42857 7.91543 5.20776 5.77759 6.66762C3.63975 8.12747 1.97351 10.2024 0.989572 12.6301C0.00563272 15.0577 -0.251811 17.729 0.249797 20.3062C0.751405 22.8834 1.98953 25.2507 3.80762 27.1087C5.6257 28.9667 7.94208 30.2321 10.4638 30.7447C12.9856 31.2573 15.5994 30.9942 17.9749 29.9887C20.3503 28.9831 22.3806 27.2803 23.8091 25.0954C25.2376 22.9106 26 20.3419 26 17.7143C25.9961 14.1919 24.6252 10.815 22.188 8.32432C19.7509 5.83363 16.4466 4.4326 13 4.42857ZM13 28.7857C10.8574 28.7857 8.76286 28.1364 6.98133 26.9198C5.1998 25.7033 3.81126 23.9742 2.99131 21.9511C2.17136 19.9281 1.95683 17.702 2.37483 15.5544C2.79284 13.4067 3.82461 11.434 5.33968 9.8856C6.85475 8.33724 8.78507 7.28278 10.8865 6.85559C12.988 6.4284 15.1662 6.64765 17.1457 7.48562C19.1253 8.32359 20.8172 9.74264 22.0076 11.5633C23.198 13.384 23.8333 15.5246 23.8333 17.7143C23.8301 20.6496 22.6877 23.4637 20.6568 25.5393C18.6258 27.6149 15.8722 28.7824 13 28.7857ZM19.1831 11.3953C19.2839 11.4981 19.3638 11.6202 19.4183 11.7546C19.4728 11.889 19.5009 12.0331 19.5009 12.1786C19.5009 12.3241 19.4728 12.4681 19.4183 12.6025C19.3638 12.7369 19.2839 12.859 19.1831 12.9619L13.7665 18.4976C13.6658 18.6005 13.5463 18.682 13.4148 18.7377C13.2833 18.7934 13.1423 18.822 13 18.822C12.8577 18.822 12.7167 18.7934 12.5852 18.7377C12.4537 18.682 12.3342 18.6005 12.2335 18.4976C12.1329 18.3947 12.0531 18.2726 11.9986 18.1382C11.9441 18.0038 11.9161 17.8598 11.9161 17.7143C11.9161 17.5688 11.9441 17.4248 11.9986 17.2904C12.0531 17.156 12.1329 17.0338 12.2335 16.931L17.6502 11.3953C17.7508 11.2923 17.8703 11.2107 18.0018 11.155C18.1333 11.0992 18.2743 11.0706 18.4167 11.0706C18.559 11.0706 18.7 11.0992 18.8315 11.155C18.963 11.2107 19.0825 11.2923 19.1831 11.3953ZM8.66667 1.10714C8.66667 0.81351 8.78081 0.531904 8.98397 0.324275C9.18714 0.116645 9.46269 0 9.75 0H16.25C16.5373 0 16.8129 0.116645 17.016 0.324275C17.2192 0.531904 17.3333 0.81351 17.3333 1.10714C17.3333 1.40078 17.2192 1.68238 17.016 1.89001C16.8129 2.09764 16.5373 2.21429 16.25 2.21429H9.75C9.46269 2.21429 9.18714 2.09764 8.98397 1.89001C8.78081 1.68238 8.66667 1.40078 8.66667 1.10714Z" fill="#4E73CD"/>
</svg>
